<svg width="535" height="127" viewBox="0 0 535 127" fill="none" xmlns="http://www.w3.org/2000/svg">
<g filter="url(#filter0_d_344_149)">
<path d="M20 48C39.5 96.8287 92.5 97.8354 108 48" stroke="#58079F" stroke-width="20"/>
</g>
<mask id="path-2-outside-1_344_149" maskUnits="userSpaceOnUse" x="140" y="43" width="370" height="52" fill="black">
<rect fill="white" x="140" y="43" width="370" height="52"/>
<path d="M159.784 93.768C156.243 93.768 153.085 93.0213 150.312 91.528C147.581 90.0347 145.427 87.9867 143.848 85.384C142.312 82.7813 141.544 79.816 141.544 76.488V45.32H149.096V76.168C149.096 78.2587 149.544 80.1147 150.44 81.736C151.379 83.3573 152.637 84.616 154.216 85.512C155.837 86.408 157.693 86.856 159.784 86.856C161.917 86.856 163.773 86.408 165.352 85.512C166.973 84.616 168.232 83.3573 169.128 81.736C170.067 80.1147 170.536 78.2587 170.536 76.168V45.32H178.024V76.488C178.024 79.816 177.256 82.7813 175.72 85.384C174.184 87.9867 172.029 90.0347 169.256 91.528C166.525 93.0213 163.368 93.768 159.784 93.768ZM186.786 93V58.376H193.699V65.16L192.867 64.264C193.72 62.088 195.085 60.4453 196.963 59.336C198.84 58.184 201.016 57.608 203.491 57.608C206.051 57.608 208.312 58.1627 210.275 59.272C212.237 60.3813 213.773 61.9173 214.882 63.88C215.992 65.8427 216.547 68.104 216.547 70.664V93H209.379V72.584C209.379 70.8347 209.059 69.3627 208.419 68.168C207.779 66.9307 206.861 65.992 205.667 65.352C204.515 64.6693 203.192 64.328 201.699 64.328C200.205 64.328 198.861 64.6693 197.667 65.352C196.515 65.992 195.619 66.9307 194.979 68.168C194.339 69.4053 194.019 70.8773 194.019 72.584V93H186.786ZM224.286 93V58.376H231.519V93H224.286ZM224.286 53.64V45.32H231.519V53.64H224.286ZM258.47 93.768C255.782 93.768 253.329 93.2133 251.11 92.104C248.934 90.9947 247.249 89.3947 246.054 87.304L246.886 85.96V93H239.974V44.552H247.206V65.544L246.054 63.88C247.334 61.9173 249.041 60.3813 251.174 59.272C253.307 58.1627 255.739 57.608 258.47 57.608C261.755 57.608 264.699 58.3973 267.302 59.976C269.947 61.5547 272.017 63.7093 273.51 66.44C275.046 69.1707 275.814 72.2427 275.814 75.656C275.814 79.0693 275.046 82.1413 273.51 84.872C272.017 87.6027 269.969 89.7787 267.366 91.4C264.763 92.9787 261.798 93.768 258.47 93.768ZM257.766 87.048C259.814 87.048 261.627 86.5573 263.206 85.576C264.785 84.5947 266.022 83.2507 266.918 81.544C267.857 79.7947 268.326 77.832 268.326 75.656C268.326 73.48 267.857 71.5387 266.918 69.832C266.022 68.1253 264.785 66.7813 263.206 65.8C261.627 64.8187 259.814 64.328 257.766 64.328C255.761 64.328 253.947 64.8187 252.326 65.8C250.747 66.7813 249.489 68.1253 248.55 69.832C247.654 71.5387 247.206 73.48 247.206 75.656C247.206 77.832 247.654 79.7947 248.55 81.544C249.489 83.2507 250.747 84.5947 252.326 85.576C253.947 86.5573 255.761 87.048 257.766 87.048ZM299.553 93.768C296.225 93.768 293.174 92.9787 290.401 91.4C287.67 89.8213 285.494 87.6667 283.873 84.936C282.252 82.2053 281.441 79.112 281.441 75.656C281.441 72.1573 282.252 69.064 283.873 66.376C285.494 63.6453 287.67 61.512 290.401 59.976C293.132 58.3973 296.182 57.608 299.553 57.608C302.966 57.608 306.017 58.3973 308.705 59.976C311.436 61.512 313.59 63.6453 315.169 66.376C316.79 69.064 317.601 72.1573 317.601 75.656C317.601 79.1547 316.79 82.2693 315.169 85C313.548 87.7307 311.372 89.8853 308.641 91.464C305.91 93 302.881 93.768 299.553 93.768ZM299.553 87.048C301.601 87.048 303.414 86.5573 304.993 85.576C306.572 84.5947 307.809 83.2507 308.705 81.544C309.644 79.7947 310.113 77.832 310.113 75.656C310.113 73.48 309.644 71.5387 308.705 69.832C307.809 68.1253 306.572 66.7813 304.993 65.8C303.414 64.8187 301.601 64.328 299.553 64.328C297.548 64.328 295.734 64.8187 294.113 65.8C292.534 66.7813 291.276 68.1253 290.337 69.832C289.441 71.5387 288.993 73.48 288.993 75.656C288.993 77.832 289.441 79.7947 290.337 81.544C291.276 83.2507 292.534 84.5947 294.113 85.576C295.734 86.5573 297.548 87.048 299.553 87.048ZM337.014 93.768C334.411 93.768 332.128 93.192 330.166 92.04C328.203 90.8453 326.667 89.2027 325.558 87.112C324.491 84.9787 323.958 82.5253 323.958 79.752V58.376H331.19V79.112C331.19 80.6907 331.51 82.0773 332.15 83.272C332.79 84.4667 333.686 85.4053 334.838 86.088C335.99 86.728 337.312 87.048 338.806 87.048C340.342 87.048 341.686 86.7067 342.838 86.024C343.99 85.3413 344.886 84.3813 345.526 83.144C346.208 81.9067 346.55 80.456 346.55 78.792V58.376H353.718V93H346.87V86.216L347.638 87.112C346.827 89.2453 345.483 90.888 343.606 92.04C341.728 93.192 339.531 93.768 337.014 93.768ZM362.161 93V58.376H369.074V65.16L368.242 64.264C369.095 62.088 370.46 60.4453 372.338 59.336C374.215 58.184 376.391 57.608 378.866 57.608C381.426 57.608 383.687 58.1627 385.65 59.272C387.612 60.3813 389.148 61.9173 390.257 63.88C391.367 65.8427 391.922 68.104 391.922 70.664V93H384.754V72.584C384.754 70.8347 384.434 69.3627 383.794 68.168C383.154 66.9307 382.236 65.992 381.042 65.352C379.89 64.6693 378.567 64.328 377.074 64.328C375.58 64.328 374.236 64.6693 373.042 65.352C371.89 65.992 370.994 66.9307 370.354 68.168C369.714 69.4053 369.394 70.8773 369.394 72.584V93H362.161ZM415.662 93.768C412.334 93.768 409.347 92.9787 406.702 91.4C404.099 89.7787 402.03 87.6027 400.494 84.872C399 82.1413 398.254 79.0693 398.254 75.656C398.254 72.2427 399.022 69.1707 400.558 66.44C402.094 63.7093 404.163 61.5547 406.766 59.976C409.368 58.3973 412.312 57.608 415.598 57.608C418.371 57.608 420.824 58.1627 422.958 59.272C425.091 60.3813 426.776 61.9173 428.014 63.88L426.926 65.544V44.552H434.094V93H427.246V85.96L428.078 87.304C426.883 89.3947 425.176 90.9947 422.958 92.104C420.739 93.2133 418.307 93.768 415.662 93.768ZM416.366 87.048C418.371 87.048 420.163 86.5573 421.742 85.576C423.363 84.5947 424.622 83.2507 425.518 81.544C426.456 79.7947 426.926 77.832 426.926 75.656C426.926 73.48 426.456 71.5387 425.518 69.832C424.622 68.1253 423.363 66.7813 421.742 65.8C420.163 64.8187 418.371 64.328 416.366 64.328C414.36 64.328 412.547 64.8187 410.926 65.8C409.304 66.7813 408.046 68.1253 407.15 69.832C406.254 71.5387 405.806 73.48 405.806 75.656C405.806 77.832 406.254 79.7947 407.15 81.544C408.046 83.2507 409.283 84.5947 410.862 85.576C412.483 86.5573 414.318 87.048 416.366 87.048ZM445.737 93V84.68H453.097V93H445.737ZM475.092 93.768C472.745 93.768 470.676 93.3627 468.884 92.552C467.135 91.6987 465.769 90.5467 464.788 89.096C463.807 87.6027 463.316 85.8533 463.316 83.848C463.316 81.9707 463.721 80.2853 464.532 78.792C465.385 77.2987 466.687 76.04 468.436 75.016C470.185 73.992 472.383 73.2667 475.028 72.84L487.06 70.856V76.552L476.436 78.408C474.516 78.7493 473.108 79.368 472.212 80.264C471.316 81.1173 470.868 82.2267 470.868 83.592C470.868 84.9147 471.359 86.0027 472.34 86.856C473.364 87.6667 474.665 88.072 476.244 88.072C478.207 88.072 479.913 87.6453 481.364 86.792C482.857 85.9387 484.009 84.808 484.82 83.4C485.631 81.9493 486.036 80.3493 486.036 78.6V69.704C486.036 67.9973 485.396 66.6107 484.116 65.544C482.879 64.4347 481.215 63.88 479.124 63.88C477.204 63.88 475.519 64.392 474.068 65.416C472.66 66.3973 471.615 67.6773 470.932 69.256L464.916 66.248C465.556 64.5413 466.601 63.048 468.052 61.768C469.503 60.4453 471.188 59.4213 473.108 58.696C475.071 57.9707 477.14 57.608 479.316 57.608C482.047 57.608 484.457 58.12 486.548 59.144C488.681 60.168 490.324 61.5973 491.476 63.432C492.671 65.224 493.268 67.3147 493.268 69.704V93H486.356V86.728L487.828 86.92C487.017 88.328 485.972 89.544 484.692 90.568C483.455 91.592 482.025 92.3813 480.404 92.936C478.825 93.4907 477.055 93.768 475.092 93.768ZM501.724 93V58.376H508.956V93H501.724ZM501.724 53.64V45.32H508.956V53.64H501.724Z"/>
</mask>
<path d="M159.784 93.768C156.243 93.768 153.085 93.0213 150.312 91.528C147.581 90.0347 145.427 87.9867 143.848 85.384C142.312 82.7813 141.544 79.816 141.544 76.488V45.32H149.096V76.168C149.096 78.2587 149.544 80.1147 150.44 81.736C151.379 83.3573 152.637 84.616 154.216 85.512C155.837 86.408 157.693 86.856 159.784 86.856C161.917 86.856 163.773 86.408 165.352 85.512C166.973 84.616 168.232 83.3573 169.128 81.736C170.067 80.1147 170.536 78.2587 170.536 76.168V45.32H178.024V76.488C178.024 79.816 177.256 82.7813 175.72 85.384C174.184 87.9867 172.029 90.0347 169.256 91.528C166.525 93.0213 163.368 93.768 159.784 93.768ZM186.786 93V58.376H193.699V65.16L192.867 64.264C193.72 62.088 195.085 60.4453 196.963 59.336C198.84 58.184 201.016 57.608 203.491 57.608C206.051 57.608 208.312 58.1627 210.275 59.272C212.237 60.3813 213.773 61.9173 214.882 63.88C215.992 65.8427 216.547 68.104 216.547 70.664V93H209.379V72.584C209.379 70.8347 209.059 69.3627 208.419 68.168C207.779 66.9307 206.861 65.992 205.667 65.352C204.515 64.6693 203.192 64.328 201.699 64.328C200.205 64.328 198.861 64.6693 197.667 65.352C196.515 65.992 195.619 66.9307 194.979 68.168C194.339 69.4053 194.019 70.8773 194.019 72.584V93H186.786ZM224.286 93V58.376H231.519V93H224.286ZM224.286 53.64V45.32H231.519V53.64H224.286ZM258.47 93.768C255.782 93.768 253.329 93.2133 251.11 92.104C248.934 90.9947 247.249 89.3947 246.054 87.304L246.886 85.96V93H239.974V44.552H247.206V65.544L246.054 63.88C247.334 61.9173 249.041 60.3813 251.174 59.272C253.307 58.1627 255.739 57.608 258.47 57.608C261.755 57.608 264.699 58.3973 267.302 59.976C269.947 61.5547 272.017 63.7093 273.51 66.44C275.046 69.1707 275.814 72.2427 275.814 75.656C275.814 79.0693 275.046 82.1413 273.51 84.872C272.017 87.6027 269.969 89.7787 267.366 91.4C264.763 92.9787 261.798 93.768 258.47 93.768ZM257.766 87.048C259.814 87.048 261.627 86.5573 263.206 85.576C264.785 84.5947 266.022 83.2507 266.918 81.544C267.857 79.7947 268.326 77.832 268.326 75.656C268.326 73.48 267.857 71.5387 266.918 69.832C266.022 68.1253 264.785 66.7813 263.206 65.8C261.627 64.8187 259.814 64.328 257.766 64.328C255.761 64.328 253.947 64.8187 252.326 65.8C250.747 66.7813 249.489 68.1253 248.55 69.832C247.654 71.5387 247.206 73.48 247.206 75.656C247.206 77.832 247.654 79.7947 248.55 81.544C249.489 83.2507 250.747 84.5947 252.326 85.576C253.947 86.5573 255.761 87.048 257.766 87.048ZM299.553 93.768C296.225 93.768 293.174 92.9787 290.401 91.4C287.67 89.8213 285.494 87.6667 283.873 84.936C282.252 82.2053 281.441 79.112 281.441 75.656C281.441 72.1573 282.252 69.064 283.873 66.376C285.494 63.6453 287.67 61.512 290.401 59.976C293.132 58.3973 296.182 57.608 299.553 57.608C302.966 57.608 306.017 58.3973 308.705 59.976C311.436 61.512 313.59 63.6453 315.169 66.376C316.79 69.064 317.601 72.1573 317.601 75.656C317.601 79.1547 316.79 82.2693 315.169 85C313.548 87.7307 311.372 89.8853 308.641 91.464C305.91 93 302.881 93.768 299.553 93.768ZM299.553 87.048C301.601 87.048 303.414 86.5573 304.993 85.576C306.572 84.5947 307.809 83.2507 308.705 81.544C309.644 79.7947 310.113 77.832 310.113 75.656C310.113 73.48 309.644 71.5387 308.705 69.832C307.809 68.1253 306.572 66.7813 304.993 65.8C303.414 64.8187 301.601 64.328 299.553 64.328C297.548 64.328 295.734 64.8187 294.113 65.8C292.534 66.7813 291.276 68.1253 290.337 69.832C289.441 71.5387 288.993 73.48 288.993 75.656C288.993 77.832 289.441 79.7947 290.337 81.544C291.276 83.2507 292.534 84.5947 294.113 85.576C295.734 86.5573 297.548 87.048 299.553 87.048ZM337.014 93.768C334.411 93.768 332.128 93.192 330.166 92.04C328.203 90.8453 326.667 89.2027 325.558 87.112C324.491 84.9787 323.958 82.5253 323.958 79.752V58.376H331.19V79.112C331.19 80.6907 331.51 82.0773 332.15 83.272C332.79 84.4667 333.686 85.4053 334.838 86.088C335.99 86.728 337.312 87.048 338.806 87.048C340.342 87.048 341.686 86.7067 342.838 86.024C343.99 85.3413 344.886 84.3813 345.526 83.144C346.208 81.9067 346.55 80.456 346.55 78.792V58.376H353.718V93H346.87V86.216L347.638 87.112C346.827 89.2453 345.483 90.888 343.606 92.04C341.728 93.192 339.531 93.768 337.014 93.768ZM362.161 93V58.376H369.074V65.16L368.242 64.264C369.095 62.088 370.46 60.4453 372.338 59.336C374.215 58.184 376.391 57.608 378.866 57.608C381.426 57.608 383.687 58.1627 385.65 59.272C387.612 60.3813 389.148 61.9173 390.257 63.88C391.367 65.8427 391.922 68.104 391.922 70.664V93H384.754V72.584C384.754 70.8347 384.434 69.3627 383.794 68.168C383.154 66.9307 382.236 65.992 381.042 65.352C379.89 64.6693 378.567 64.328 377.074 64.328C375.58 64.328 374.236 64.6693 373.042 65.352C371.89 65.992 370.994 66.9307 370.354 68.168C369.714 69.4053 369.394 70.8773 369.394 72.584V93H362.161ZM415.662 93.768C412.334 93.768 409.347 92.9787 406.702 91.4C404.099 89.7787 402.03 87.6027 400.494 84.872C399 82.1413 398.254 79.0693 398.254 75.656C398.254 72.2427 399.022 69.1707 400.558 66.44C402.094 63.7093 404.163 61.5547 406.766 59.976C409.368 58.3973 412.312 57.608 415.598 57.608C418.371 57.608 420.824 58.1627 422.958 59.272C425.091 60.3813 426.776 61.9173 428.014 63.88L426.926 65.544V44.552H434.094V93H427.246V85.96L428.078 87.304C426.883 89.3947 425.176 90.9947 422.958 92.104C420.739 93.2133 418.307 93.768 415.662 93.768ZM416.366 87.048C418.371 87.048 420.163 86.5573 421.742 85.576C423.363 84.5947 424.622 83.2507 425.518 81.544C426.456 79.7947 426.926 77.832 426.926 75.656C426.926 73.48 426.456 71.5387 425.518 69.832C424.622 68.1253 423.363 66.7813 421.742 65.8C420.163 64.8187 418.371 64.328 416.366 64.328C414.36 64.328 412.547 64.8187 410.926 65.8C409.304 66.7813 408.046 68.1253 407.15 69.832C406.254 71.5387 405.806 73.48 405.806 75.656C405.806 77.832 406.254 79.7947 407.15 81.544C408.046 83.2507 409.283 84.5947 410.862 85.576C412.483 86.5573 414.318 87.048 416.366 87.048ZM445.737 93V84.68H453.097V93H445.737ZM475.092 93.768C472.745 93.768 470.676 93.3627 468.884 92.552C467.135 91.6987 465.769 90.5467 464.788 89.096C463.807 87.6027 463.316 85.8533 463.316 83.848C463.316 81.9707 463.721 80.2853 464.532 78.792C465.385 77.2987 466.687 76.04 468.436 75.016C470.185 73.992 472.383 73.2667 475.028 72.84L487.06 70.856V76.552L476.436 78.408C474.516 78.7493 473.108 79.368 472.212 80.264C471.316 81.1173 470.868 82.2267 470.868 83.592C470.868 84.9147 471.359 86.0027 472.34 86.856C473.364 87.6667 474.665 88.072 476.244 88.072C478.207 88.072 479.913 87.6453 481.364 86.792C482.857 85.9387 484.009 84.808 484.82 83.4C485.631 81.9493 486.036 80.3493 486.036 78.6V69.704C486.036 67.9973 485.396 66.6107 484.116 65.544C482.879 64.4347 481.215 63.88 479.124 63.88C477.204 63.88 475.519 64.392 474.068 65.416C472.66 66.3973 471.615 67.6773 470.932 69.256L464.916 66.248C465.556 64.5413 466.601 63.048 468.052 61.768C469.503 60.4453 471.188 59.4213 473.108 58.696C475.071 57.9707 477.14 57.608 479.316 57.608C482.047 57.608 484.457 58.12 486.548 59.144C488.681 60.168 490.324 61.5973 491.476 63.432C492.671 65.224 493.268 67.3147 493.268 69.704V93H486.356V86.728L487.828 86.92C487.017 88.328 485.972 89.544 484.692 90.568C483.455 91.592 482.025 92.3813 480.404 92.936C478.825 93.4907 477.055 93.768 475.092 93.768ZM501.724 93V58.376H508.956V93H501.724ZM501.724 53.64V45.32H508.956V53.64H501.724Z" fill="black"/>
<path d="M150.312 91.528L149.832 92.4054L149.838 92.4085L150.312 91.528ZM143.848 85.384L142.987 85.8923L142.993 85.9026L143.848 85.384ZM141.544 45.32V44.32H140.544V45.32H141.544ZM149.096 45.32H150.096V44.32H149.096V45.32ZM150.44 81.736L149.565 82.2197L149.57 82.2284L149.575 82.237L150.44 81.736ZM154.216 85.512L153.722 86.3817L153.732 86.3872L154.216 85.512ZM165.352 85.512L164.868 84.6367L164.858 84.6423L165.352 85.512ZM169.128 81.736L168.263 81.235L168.258 81.2436L168.253 81.2523L169.128 81.736ZM170.536 45.32V44.32H169.536V45.32H170.536ZM178.024 45.32H179.024V44.32H178.024V45.32ZM175.72 85.384L176.581 85.8923V85.8923L175.72 85.384ZM169.256 91.528L168.782 90.6475L168.776 90.6506L169.256 91.528ZM159.784 93.768V92.768C156.387 92.768 153.396 92.0531 150.786 90.6475L150.312 91.528L149.838 92.4085C152.774 93.9896 156.098 94.768 159.784 94.768V93.768ZM150.312 91.528L150.792 90.6506C148.212 89.2398 146.188 87.314 144.703 84.8654L143.848 85.384L142.993 85.9026C144.665 88.6593 146.951 90.8296 149.832 92.4054L150.312 91.528ZM143.848 85.384L144.709 84.8757C143.273 82.4423 142.544 79.6558 142.544 76.488H141.544H140.544C140.544 79.9762 141.351 83.1203 142.987 85.8923L143.848 85.384ZM141.544 76.488H142.544V45.32H141.544H140.544V76.488H141.544ZM141.544 45.32V46.32H149.096V45.32V44.32H141.544V45.32ZM149.096 45.32H148.096V76.168H149.096H150.096V45.32H149.096ZM149.096 76.168H148.096C148.096 78.4058 148.577 80.4321 149.565 82.2197L150.44 81.736L151.315 81.2523C150.511 79.7973 150.096 78.1116 150.096 76.168H149.096ZM150.44 81.736L149.575 82.237C150.599 84.0069 151.984 85.3951 153.722 86.3817L154.216 85.512L154.71 84.6423C153.291 83.8369 152.158 82.7077 151.305 81.235L150.44 81.736ZM154.216 85.512L153.732 86.3872C155.52 87.3751 157.546 87.856 159.784 87.856V86.856V85.856C157.84 85.856 156.155 85.4409 154.7 84.6368L154.216 85.512ZM159.784 86.856V87.856C162.06 87.856 164.092 87.377 165.846 86.3817L165.352 85.512L164.858 84.6423C163.455 85.439 161.775 85.856 159.784 85.856V86.856ZM165.352 85.512L165.836 86.3872C167.622 85.4002 169.016 84.0058 170.003 82.2197L169.128 81.736L168.253 81.2523C167.448 82.7089 166.325 83.8318 164.868 84.6368L165.352 85.512ZM169.128 81.736L169.993 82.237C171.03 80.4463 171.536 78.4137 171.536 76.168H170.536H169.536C169.536 78.1036 169.103 79.783 168.263 81.235L169.128 81.736ZM170.536 76.168H171.536V45.32H170.536H169.536V76.168H170.536ZM170.536 45.32V46.32H178.024V45.32V44.32H170.536V45.32ZM178.024 45.32H177.024V76.488H178.024H179.024V45.32H178.024ZM178.024 76.488H177.024C177.024 79.6558 176.295 82.4423 174.859 84.8757L175.72 85.384L176.581 85.8923C178.217 83.1203 179.024 79.9762 179.024 76.488H178.024ZM175.72 85.384L174.859 84.8757C173.419 87.3146 171.402 89.2368 168.782 90.6475L169.256 91.528L169.73 92.4085C172.657 90.8325 174.949 88.6588 176.581 85.8923L175.72 85.384ZM169.256 91.528L168.776 90.6506C166.214 92.052 163.226 92.768 159.784 92.768V93.768V94.768C163.51 94.768 166.837 93.9906 169.736 92.4054L169.256 91.528ZM186.786 93H185.786V94H186.786V93ZM186.786 58.376V57.376H185.786V58.376H186.786ZM193.699 58.376H194.699V57.376H193.699V58.376ZM193.699 65.16L192.966 65.8405L194.699 67.7065V65.16H193.699ZM192.867 64.264L191.936 63.8989L191.706 64.4839L192.134 64.9445L192.867 64.264ZM196.963 59.336L197.471 60.1969L197.478 60.1927L197.486 60.1883L196.963 59.336ZM210.275 59.272L209.782 60.1426V60.1426L210.275 59.272ZM214.882 63.88L214.012 64.3721V64.3721L214.882 63.88ZM216.547 93V94H217.547V93H216.547ZM209.379 93H208.379V94H209.379V93ZM208.419 68.168L207.53 68.6274L207.534 68.6338L207.537 68.6402L208.419 68.168ZM205.667 65.352L205.157 66.2123L205.175 66.2233L205.194 66.2335L205.667 65.352ZM197.667 65.352L198.152 66.2262L198.163 66.2202L197.667 65.352ZM194.979 68.168L195.867 68.6274V68.6274L194.979 68.168ZM194.019 93V94H195.019V93H194.019ZM186.786 93H187.786V58.376H186.786H185.786V93H186.786ZM186.786 58.376V59.376H193.699V58.376V57.376H186.786V58.376ZM193.699 58.376H192.699V65.16H193.699H194.699V58.376H193.699ZM193.699 65.16L194.431 64.4795L193.599 63.5835L192.867 64.264L192.134 64.9445L192.966 65.8405L193.699 65.16ZM192.867 64.264L193.797 64.6291C194.576 62.6449 195.8 61.1843 197.471 60.1969L196.963 59.336L196.454 58.4751C194.37 59.7064 192.864 61.5311 191.936 63.8989L192.867 64.264ZM196.963 59.336L197.486 60.1883C199.187 59.1444 201.177 58.608 203.491 58.608V57.608V56.608C200.855 56.608 198.493 57.2236 196.439 58.4837L196.963 59.336ZM203.491 57.608V58.608C205.902 58.608 207.989 59.129 209.782 60.1426L210.275 59.272L210.767 58.4014C208.634 57.1963 206.199 56.608 203.491 56.608V57.608ZM210.275 59.272L209.782 60.1426C211.587 61.1625 212.992 62.5676 214.012 64.3721L214.882 63.88L215.753 63.3879C214.554 61.2671 212.887 59.6002 210.767 58.4014L210.275 59.272ZM214.882 63.88L214.012 64.3721C215.025 66.1652 215.547 68.2527 215.547 70.664H216.547H217.547C217.547 67.9553 216.958 65.5201 215.753 63.3879L214.882 63.88ZM216.547 70.664H215.547V93H216.547H217.547V70.664H216.547ZM216.547 93V92H209.379V93V94H216.547V93ZM209.379 93H210.379V72.584H209.379H208.379V93H209.379ZM209.379 72.584H210.379C210.379 70.7164 210.037 69.0718 209.3 67.6958L208.419 68.168L207.537 68.6402C208.08 69.6535 208.379 70.9529 208.379 72.584H209.379ZM208.419 68.168L209.307 67.7086C208.577 66.2971 207.517 65.2087 206.139 64.4705L205.667 65.352L205.194 66.2335C206.206 66.7753 206.98 67.5643 207.53 68.6274L208.419 68.168ZM205.667 65.352L206.176 64.4917C204.853 63.7074 203.35 63.328 201.699 63.328V64.328V65.328C203.034 65.328 204.176 65.6313 205.157 66.2123L205.667 65.352ZM201.699 64.328V63.328C200.046 63.328 198.529 63.7075 197.17 64.4838L197.667 65.352L198.163 66.2202C199.193 65.6312 200.364 65.328 201.699 65.328V64.328ZM197.667 65.352L197.181 64.4778C195.847 65.219 194.815 66.3069 194.09 67.7086L194.979 68.168L195.867 68.6274C196.422 67.5544 197.182 66.765 198.152 66.2262L197.667 65.352ZM194.979 68.168L194.09 67.7086C193.362 69.1164 193.019 70.7529 193.019 72.584H194.019H195.019C195.019 71.0017 195.315 69.6943 195.867 68.6274L194.979 68.168ZM194.019 72.584H193.019V93H194.019H195.019V72.584H194.019ZM194.019 93V92H186.786V93V94H194.019V93ZM224.286 93H223.286V94H224.286V93ZM224.286 58.376V57.376H223.286V58.376H224.286ZM231.519 58.376H232.519V57.376H231.519V58.376ZM231.519 93V94H232.519V93H231.519ZM224.286 53.64H223.286V54.64H224.286V53.64ZM224.286 45.32V44.32H223.286V45.32H224.286ZM231.519 45.32H232.519V44.32H231.519V45.32ZM231.519 53.64V54.64H232.519V53.64H231.519ZM224.286 93H225.286V58.376H224.286H223.286V93H224.286ZM224.286 58.376V59.376H231.519V58.376V57.376H224.286V58.376ZM231.519 58.376H230.519V93H231.519H232.519V58.376H231.519ZM231.519 93V92H224.286V93V94H231.519V93ZM224.286 53.64H225.286V45.32H224.286H223.286V53.64H224.286ZM224.286 45.32V46.32H231.519V45.32V44.32H224.286V45.32ZM231.519 45.32H230.519V53.64H231.519H232.519V45.32H231.519ZM231.519 53.64V52.64H224.286V53.64V54.64H231.519V53.64ZM251.11 92.104L250.656 92.9949L250.663 92.9984L251.11 92.104ZM246.054 87.304L245.204 86.7776L244.891 87.2835L245.186 87.8001L246.054 87.304ZM246.886 85.96H247.886V82.4448L246.036 85.4336L246.886 85.96ZM246.886 93V94H247.886V93H246.886ZM239.974 93H238.974V94H239.974V93ZM239.974 44.552V43.552H238.974V44.552H239.974ZM247.206 44.552H248.206V43.552H247.206V44.552ZM247.206 65.544L246.384 66.1132L248.206 68.7453V65.544H247.206ZM246.054 63.88L245.216 63.3337L244.849 63.8967L245.232 64.4492L246.054 63.88ZM251.174 59.272L251.635 60.1592V60.1592L251.174 59.272ZM267.302 59.976L266.783 60.831L266.79 60.8347L267.302 59.976ZM273.51 66.44L272.633 66.9198L272.638 66.9303L273.51 66.44ZM273.51 84.872L272.638 84.3817L272.633 84.3922L273.51 84.872ZM267.366 91.4L267.885 92.2551L267.895 92.2488L267.366 91.4ZM263.206 85.576L263.734 86.4253V86.4253L263.206 85.576ZM266.918 81.544L266.037 81.0712L266.033 81.0792L266.918 81.544ZM266.918 69.832L266.033 70.2968L266.037 70.3054L266.042 70.3139L266.918 69.832ZM252.326 65.8L251.808 64.9444L251.798 64.9507L252.326 65.8ZM248.55 69.832L247.674 69.3501L247.669 69.3586L247.665 69.3672L248.55 69.832ZM248.55 81.544L247.66 81.9999L247.667 82.013L247.674 82.0259L248.55 81.544ZM252.326 85.576L251.798 86.4253L251.808 86.4315L252.326 85.576ZM258.47 93.768V92.768C255.924 92.768 253.626 92.2438 251.557 91.2096L251.11 92.104L250.663 92.9984C253.032 94.1829 255.64 94.768 258.47 94.768V93.768ZM251.11 92.104L251.564 91.2131C249.559 90.1909 248.019 88.7269 246.922 86.8079L246.054 87.304L245.186 87.8001C246.479 90.0625 248.309 91.7985 250.656 92.9949L251.11 92.104ZM246.054 87.304L246.904 87.8304L247.736 86.4864L246.886 85.96L246.036 85.4336L245.204 86.7776L246.054 87.304ZM246.886 85.96H245.886V93H246.886H247.886V85.96H246.886ZM246.886 93V92H239.974V93V94H246.886V93ZM239.974 93H240.974V44.552H239.974H238.974V93H239.974ZM239.974 44.552V45.552H247.206V44.552V43.552H239.974V44.552ZM247.206 44.552H246.206V65.544H247.206H248.206V44.552H247.206ZM247.206 65.544L248.028 64.9748L246.876 63.3108L246.054 63.88L245.232 64.4492L246.384 66.1132L247.206 65.544ZM246.054 63.88L246.892 64.4263C248.075 62.6116 249.651 61.1913 251.635 60.1592L251.174 59.272L250.713 58.3848C248.431 59.5713 246.593 61.223 245.216 63.3337L246.054 63.88ZM251.174 59.272L251.635 60.1592C253.608 59.1335 255.878 58.608 258.47 58.608V57.608V56.608C255.601 56.608 253.007 57.1918 250.713 58.3848L251.174 59.272ZM258.47 57.608V58.608C261.587 58.608 264.349 59.3547 266.783 60.831L267.302 59.976L267.821 59.121C265.049 57.44 261.923 56.608 258.47 56.608V57.608ZM267.302 59.976L266.79 60.8347C269.28 62.3209 271.224 64.344 272.633 66.9198L273.51 66.44L274.387 65.9602C272.809 63.0746 270.615 60.7884 267.814 59.1173L267.302 59.976ZM273.51 66.44L272.638 66.9303C274.083 69.4981 274.814 72.3986 274.814 75.656H275.814H276.814C276.814 72.0867 276.009 68.8433 274.382 65.9497L273.51 66.44ZM275.814 75.656H274.814C274.814 78.9134 274.083 81.8139 272.638 84.3817L273.51 84.872L274.382 85.3623C276.009 82.4687 276.814 79.2253 276.814 75.656H275.814ZM273.51 84.872L272.633 84.3922C271.221 86.9743 269.292 89.0223 266.837 90.5512L267.366 91.4L267.895 92.2488C270.646 90.5351 272.813 88.231 274.387 85.3518L273.51 84.872ZM267.366 91.4L266.847 90.545C264.416 92.0201 261.633 92.768 258.47 92.768V93.768V94.768C261.963 94.768 265.111 93.9373 267.885 92.255L267.366 91.4ZM257.766 87.048V88.048C259.981 88.048 261.981 87.515 263.734 86.4253L263.206 85.576L262.678 84.7267C261.274 85.5997 259.647 86.048 257.766 86.048V87.048ZM263.206 85.576L263.734 86.4253C265.47 85.3464 266.828 83.8671 267.803 82.0088L266.918 81.544L266.033 81.0792C265.216 82.6342 264.1 83.843 262.678 84.7267L263.206 85.576ZM266.918 81.544L267.799 82.0168C268.823 80.1085 269.326 77.9808 269.326 75.656H268.326H267.326C267.326 77.6832 266.89 79.4809 266.037 81.0712L266.918 81.544ZM268.326 75.656H269.326C269.326 73.3316 268.823 71.2211 267.794 69.3501L266.918 69.832L266.042 70.3139C266.89 71.8563 267.326 73.6284 267.326 75.656H268.326ZM266.918 69.832L267.803 69.3672C266.828 67.5089 265.47 66.0296 263.734 64.9507L263.206 65.8L262.678 66.6493C264.1 67.533 265.216 68.7418 266.033 70.2968L266.918 69.832ZM263.206 65.8L263.734 64.9507C261.981 63.861 259.981 63.328 257.766 63.328V64.328V65.328C259.647 65.328 261.274 65.7763 262.678 66.6493L263.206 65.8ZM257.766 64.328V63.328C255.589 63.328 253.595 63.8631 251.808 64.9445L252.326 65.8L252.844 66.6555C254.3 65.7743 255.932 65.328 257.766 65.328V64.328ZM252.326 65.8L251.798 64.9507C250.067 66.027 248.691 67.5006 247.674 69.3501L248.55 69.832L249.426 70.3139C250.286 68.7501 251.428 67.5357 252.854 66.6493L252.326 65.8ZM248.55 69.832L247.665 69.3672C246.684 71.2348 246.206 73.3392 246.206 75.656H247.206H248.206C248.206 73.6208 248.624 71.8425 249.435 70.2968L248.55 69.832ZM247.206 75.656H246.206C246.206 77.9733 246.684 80.0949 247.66 81.9999L248.55 81.544L249.44 81.0881C248.624 79.4945 248.206 77.6907 248.206 75.656H247.206ZM248.55 81.544L247.674 82.0259C248.691 83.8754 250.067 85.349 251.798 86.4253L252.326 85.576L252.854 84.7267C251.428 83.8403 250.286 82.6259 249.426 81.0621L248.55 81.544ZM252.326 85.576L251.808 86.4315C253.595 87.5129 255.589 88.048 257.766 88.048V87.048V86.048C255.932 86.048 254.3 85.6017 252.844 84.7205L252.326 85.576ZM290.401 91.4L289.9 92.2658L289.906 92.2691L290.401 91.4ZM283.873 84.936L283.013 85.4465V85.4465L283.873 84.936ZM283.873 66.376L284.729 66.8925L284.733 66.8865L283.873 66.376ZM290.401 59.976L290.891 60.8476L290.902 60.8417L290.401 59.976ZM308.705 59.976L308.199 60.8383L308.207 60.843L308.215 60.8476L308.705 59.976ZM315.169 66.376L314.303 66.8765L314.308 66.8845L314.313 66.8925L315.169 66.376ZM315.169 85L316.029 85.5105V85.5105L315.169 85ZM308.641 91.464L309.131 92.3356L309.142 92.3297L308.641 91.464ZM304.993 85.576L305.521 86.4253V86.4253L304.993 85.576ZM308.705 81.544L307.824 81.0712L307.82 81.0792L308.705 81.544ZM308.705 69.832L307.82 70.2968L307.824 70.3054L307.829 70.3139L308.705 69.832ZM294.113 65.8L293.595 64.9444L293.585 64.9507L294.113 65.8ZM290.337 69.832L289.461 69.3501L289.456 69.3586L289.452 69.3672L290.337 69.832ZM290.337 81.544L289.447 81.9999L289.454 82.013L289.461 82.0259L290.337 81.544ZM294.113 85.576L293.585 86.4253L293.595 86.4315L294.113 85.576ZM299.553 93.768V92.768C296.391 92.768 293.512 92.02 290.896 90.5309L290.401 91.4L289.906 92.2691C292.837 93.9373 296.059 94.768 299.553 94.768V93.768ZM290.401 91.4L290.902 90.5343C288.32 89.0419 286.267 87.01 284.733 84.4255L283.873 84.936L283.013 85.4465C284.721 88.3234 287.021 90.6008 289.9 92.2657L290.401 91.4ZM283.873 84.936L284.733 84.4255C283.211 81.8628 282.441 78.9487 282.441 75.656H281.441H280.441C280.441 79.2753 281.292 82.5479 283.013 85.4465L283.873 84.936ZM281.441 75.656H282.441C282.441 72.3179 283.212 69.4072 284.729 66.8925L283.873 66.376L283.017 65.8595C281.291 68.7208 280.441 71.9967 280.441 75.656H281.441ZM283.873 66.376L284.733 66.8865C286.266 64.3044 288.315 62.2965 290.891 60.8476L290.401 59.976L289.911 59.1044C287.025 60.7275 284.723 62.9863 283.013 65.8655L283.873 66.376ZM290.401 59.976L290.902 60.8417C293.47 59.3571 296.346 58.608 299.553 58.608V57.608V56.608C296.019 56.608 292.794 57.4376 289.9 59.1103L290.401 59.976ZM299.553 57.608V58.608C302.806 58.608 305.678 59.3582 308.199 60.8383L308.705 59.976L309.211 59.1137C306.356 57.4364 303.127 56.608 299.553 56.608V57.608ZM308.705 59.976L308.215 60.8476C310.788 62.2951 312.814 64.2998 314.303 66.8765L315.169 66.376L316.035 65.8755C314.367 62.9908 312.083 60.7289 309.195 59.1044L308.705 59.976ZM315.169 66.376L314.313 66.8925C315.83 69.4072 316.601 72.3179 316.601 75.656H317.601H318.601C318.601 71.9967 317.751 68.7208 316.025 65.8595L315.169 66.376ZM317.601 75.656H316.601C316.601 78.9938 315.83 81.9287 314.309 84.4895L315.169 85L316.029 85.5105C317.751 82.61 318.601 79.3155 318.601 75.656H317.601ZM315.169 85L314.309 84.4895C312.775 87.074 310.722 89.1059 308.141 90.5983L308.641 91.464L309.142 92.3297C312.021 90.6648 314.321 88.3874 316.029 85.5105L315.169 85ZM308.641 91.464L308.151 90.5924C305.579 92.039 302.72 92.768 299.553 92.768V93.768V94.768C303.042 94.768 306.242 93.961 309.131 92.3356L308.641 91.464ZM299.553 87.048V88.048C301.768 88.048 303.768 87.515 305.521 86.4253L304.993 85.576L304.465 84.7267C303.061 85.5997 301.434 86.048 299.553 86.048V87.048ZM304.993 85.576L305.521 86.4253C307.257 85.3464 308.615 83.8671 309.59 82.0088L308.705 81.544L307.82 81.0792C307.003 82.6342 305.887 83.843 304.465 84.7267L304.993 85.576ZM308.705 81.544L309.586 82.0168C310.61 80.1085 311.113 77.9808 311.113 75.656H310.113H309.113C309.113 77.6832 308.677 79.4809 307.824 81.0712L308.705 81.544ZM310.113 75.656H311.113C311.113 73.3316 310.61 71.2211 309.581 69.3501L308.705 69.832L307.829 70.3139C308.677 71.8563 309.113 73.6284 309.113 75.656H310.113ZM308.705 69.832L309.59 69.3672C308.615 67.5089 307.257 66.0296 305.521 64.9507L304.993 65.8L304.465 66.6493C305.887 67.533 307.003 68.7418 307.82 70.2968L308.705 69.832ZM304.993 65.8L305.521 64.9507C303.768 63.861 301.768 63.328 299.553 63.328V64.328V65.328C301.434 65.328 303.061 65.7763 304.465 66.6493L304.993 65.8ZM299.553 64.328V63.328C297.376 63.328 295.382 63.8631 293.595 64.9445L294.113 65.8L294.631 66.6555C296.087 65.7743 297.719 65.328 299.553 65.328V64.328ZM294.113 65.8L293.585 64.9507C291.854 66.027 290.478 67.5006 289.461 69.3501L290.337 69.832L291.213 70.3139C292.073 68.7501 293.215 67.5357 294.641 66.6493L294.113 65.8ZM290.337 69.832L289.452 69.3672C288.471 71.2348 287.993 73.3392 287.993 75.656H288.993H289.993C289.993 73.6208 290.411 71.8425 291.222 70.2968L290.337 69.832ZM288.993 75.656H287.993C287.993 77.9733 288.471 80.0949 289.447 81.9999L290.337 81.544L291.227 81.0881C290.411 79.4945 289.993 77.6907 289.993 75.656H288.993ZM290.337 81.544L289.461 82.0259C290.478 83.8754 291.854 85.349 293.585 86.4253L294.113 85.576L294.641 84.7267C293.215 83.8403 292.073 82.6259 291.213 81.0621L290.337 81.544ZM294.113 85.576L293.595 86.4315C295.382 87.5129 297.376 88.048 299.553 88.048V87.048V86.048C297.719 86.048 296.087 85.6017 294.631 84.7205L294.113 85.576ZM330.165 92.04L329.646 92.8942L329.652 92.8984L329.659 92.9024L330.165 92.04ZM325.557 87.112L324.663 87.5592L324.668 87.57L324.674 87.5807L325.557 87.112ZM323.958 58.376V57.376H322.958V58.376H323.958ZM331.189 58.376H332.189V57.376H331.189V58.376ZM332.15 83.272L333.031 82.7998V82.7998L332.15 83.272ZM334.837 86.088L334.328 86.9483L334.34 86.9554L334.352 86.9622L334.837 86.088ZM342.837 86.024L343.347 86.8843V86.8843L342.837 86.024ZM345.525 83.144L344.65 82.6609L344.643 82.6727L344.637 82.6846L345.525 83.144ZM346.549 58.376V57.376H345.549V58.376H346.549ZM353.717 58.376H354.717V57.376H353.717V58.376ZM353.717 93V94H354.717V93H353.717ZM346.87 93H345.87V94H346.87V93ZM346.87 86.216L347.629 85.5652L345.87 83.5127V86.216H346.87ZM347.637 87.112L348.572 87.4672L348.783 86.9121L348.397 86.4612L347.637 87.112ZM343.605 92.04L344.129 92.8923V92.8923L343.605 92.04ZM337.014 93.768V92.768C334.563 92.768 332.46 92.2272 330.672 91.1776L330.165 92.04L329.659 92.9024C331.796 94.1568 334.259 94.768 337.014 94.768V93.768ZM330.165 92.04L330.685 91.1858C328.881 90.0875 327.469 88.5801 326.441 86.6433L325.557 87.112L324.674 87.5807C325.865 89.8252 327.525 91.6031 329.646 92.8942L330.165 92.04ZM325.557 87.112L326.452 86.6648C325.465 84.6913 324.958 82.3953 324.958 79.752H323.958H322.958C322.958 82.6553 323.517 85.2661 324.663 87.5592L325.557 87.112ZM323.958 79.752H324.958V58.376H323.958H322.958V79.752H323.958ZM323.958 58.376V59.376H331.189V58.376V57.376H323.958V58.376ZM331.189 58.376H330.189V79.112H331.189H332.189V58.376H331.189ZM331.189 79.112H330.189C330.189 80.8282 330.538 82.382 331.268 83.7442L332.15 83.272L333.031 82.7998C332.481 81.7726 332.189 80.5532 332.189 79.112H331.189ZM332.15 83.272L331.268 83.7442C331.993 85.0977 333.017 86.1714 334.328 86.9483L334.837 86.088L335.347 85.2277C334.354 84.6392 333.586 83.8357 333.031 82.7998L332.15 83.272ZM334.837 86.088L334.352 86.9622C335.671 87.6952 337.165 88.048 338.805 88.048V87.048V86.048C337.459 86.048 336.308 85.7608 335.323 85.2138L334.837 86.088ZM338.805 87.048V88.048C340.494 88.048 342.019 87.6712 343.347 86.8843L342.837 86.024L342.328 85.1637C341.352 85.7421 340.189 86.048 338.805 86.048V87.048ZM342.837 86.024L343.347 86.8843C344.667 86.1021 345.691 85.0001 346.414 83.6034L345.525 83.144L344.637 82.6846C344.08 83.7625 343.312 84.5805 342.328 85.1637L342.837 86.024ZM345.525 83.144L346.401 83.6271C347.179 82.2175 347.549 80.5949 347.549 78.792H346.549H345.549C345.549 80.3171 345.238 81.5958 344.65 82.6609L345.525 83.144ZM346.549 78.792H347.549V58.376H346.549H345.549V78.792H346.549ZM346.549 58.376V59.376H353.717V58.376V57.376H346.549V58.376ZM353.717 58.376H352.717V93H353.717H354.717V58.376H353.717ZM353.717 93V92H346.87V93V94H353.717V93ZM346.87 93H347.87V86.216H346.87H345.87V93H346.87ZM346.87 86.216L346.11 86.8668L346.878 87.7628L347.637 87.112L348.397 86.4612L347.629 85.5652L346.87 86.216ZM347.637 87.112L346.703 86.7568C345.968 88.6915 344.764 90.1557 343.082 91.1877L343.605 92.04L344.129 92.8923C346.201 91.6203 347.686 89.7992 348.572 87.4672L347.637 87.112ZM343.605 92.04L343.082 91.1877C341.384 92.2299 339.373 92.768 337.014 92.768V93.768V94.768C339.689 94.768 342.072 94.1541 344.129 92.8923L343.605 92.04ZM362.161 93H361.161V94H362.161V93ZM362.161 58.376V57.376H361.161V58.376H362.161ZM369.074 58.376H370.074V57.376H369.074V58.376ZM369.074 65.16L368.341 65.8405L370.074 67.7065V65.16H369.074ZM368.242 64.264L367.311 63.8989L367.081 64.4839L367.509 64.9445L368.242 64.264ZM372.337 59.336L372.846 60.1969L372.853 60.1927L372.861 60.1883L372.337 59.336ZM385.65 59.272L385.157 60.1426V60.1426L385.65 59.272ZM390.258 63.88L389.387 64.3721V64.3721L390.258 63.88ZM391.922 93V94H392.922V93H391.922ZM384.754 93H383.754V94H384.754V93ZM383.794 68.168L382.905 68.6274L382.909 68.6338L382.912 68.6402L383.794 68.168ZM381.042 65.352L380.532 66.2123L380.55 66.2233L380.569 66.2335L381.042 65.352ZM373.042 65.352L373.527 66.2262L373.538 66.2202L373.042 65.352ZM370.354 68.168L371.242 68.6274V68.6274L370.354 68.168ZM369.393 93V94H370.393V93H369.393ZM362.161 93H363.161V58.376H362.161H361.161V93H362.161ZM362.161 58.376V59.376H369.074V58.376V57.376H362.161V58.376ZM369.074 58.376H368.074V65.16H369.074H370.074V58.376H369.074ZM369.074 65.16L369.806 64.4795L368.974 63.5835L368.242 64.264L367.509 64.9445L368.341 65.8405L369.074 65.16ZM368.242 64.264L369.172 64.6291C369.951 62.6449 371.175 61.1843 372.846 60.1969L372.337 59.336L371.829 58.4751C369.745 59.7064 368.239 61.5311 367.311 63.8989L368.242 64.264ZM372.337 59.336L372.861 60.1883C374.562 59.1444 376.552 58.608 378.866 58.608V57.608V56.608C376.23 56.608 373.868 57.2236 371.814 58.4837L372.337 59.336ZM378.866 57.608V58.608C381.277 58.608 383.364 59.129 385.157 60.1426L385.65 59.272L386.142 58.4014C384.009 57.1963 381.574 56.608 378.866 56.608V57.608ZM385.65 59.272L385.157 60.1426C386.962 61.1625 388.367 62.5676 389.387 64.3721L390.258 63.88L391.128 63.3879C389.929 61.2671 388.262 59.6002 386.142 58.4014L385.65 59.272ZM390.258 63.88L389.387 64.3721C390.4 66.1652 390.922 68.2527 390.922 70.664H391.922H392.922C392.922 67.9553 392.333 65.5201 391.128 63.3879L390.258 63.88ZM391.922 70.664H390.922V93H391.922H392.922V70.664H391.922ZM391.922 93V92H384.754V93V94H391.922V93ZM384.754 93H385.754V72.584H384.754H383.754V93H384.754ZM384.754 72.584H385.754C385.754 70.7164 385.412 69.0718 384.675 67.6958L383.794 68.168L382.912 68.6402C383.455 69.6535 383.754 70.9529 383.754 72.584H384.754ZM383.794 68.168L384.682 67.7086C383.952 66.2971 382.892 65.2087 381.514 64.4705L381.042 65.352L380.569 66.2335C381.581 66.7753 382.355 67.5643 382.905 68.6274L383.794 68.168ZM381.042 65.352L381.551 64.4917C380.228 63.7074 378.725 63.328 377.074 63.328V64.328V65.328C378.409 65.328 379.551 65.6313 380.532 66.2123L381.042 65.352ZM377.074 64.328V63.328C375.421 63.328 373.904 63.7075 372.545 64.4838L373.042 65.352L373.538 66.2202C374.568 65.6312 375.739 65.328 377.074 65.328V64.328ZM373.042 65.352L372.556 64.4778C371.222 65.219 370.19 66.3069 369.465 67.7086L370.354 68.168L371.242 68.6274C371.797 67.5544 372.557 66.765 373.527 66.2262L373.042 65.352ZM370.354 68.168L369.465 67.7086C368.737 69.1164 368.393 70.7529 368.393 72.584H369.393H370.393C370.393 71.0017 370.69 69.6943 371.242 68.6274L370.354 68.168ZM369.393 72.584H368.393V93H369.393H370.393V72.584H369.393ZM369.393 93V92H362.161V93V94H369.393V93ZM406.702 91.4L406.173 92.2488L406.181 92.2538L406.189 92.2587L406.702 91.4ZM400.493 84.872L399.616 85.3518L399.622 85.3623L400.493 84.872ZM400.557 66.44L401.429 66.9303V66.9303L400.557 66.44ZM406.766 59.976L406.247 59.121V59.121L406.766 59.976ZM422.957 59.272L422.496 60.1592V60.1592L422.957 59.272ZM428.013 63.88L428.85 64.4272L429.202 63.8899L428.859 63.3467L428.013 63.88ZM426.926 65.544H425.926V68.9007L427.762 66.0912L426.926 65.544ZM426.926 44.552V43.552H425.926V44.552H426.926ZM434.094 44.552H435.094V43.552H434.094V44.552ZM434.094 93V94H435.094V93H434.094ZM427.246 93H426.246V94H427.246V93ZM427.246 85.96L428.096 85.4336L426.246 82.4448V85.96H427.246ZM428.078 87.304L428.946 87.8001L429.241 87.2835L428.928 86.7776L428.078 87.304ZM422.957 92.104L422.51 91.2096V91.2096L422.957 92.104ZM421.742 85.576L421.224 84.7204L421.214 84.7267L421.742 85.576ZM425.518 81.544L424.636 81.0712L424.632 81.0792L425.518 81.544ZM425.518 69.832L424.632 70.2968L424.637 70.3054L424.641 70.3139L425.518 69.832ZM421.742 65.8L421.214 66.6493L421.224 66.6555L421.742 65.8ZM410.926 65.8L411.443 66.6555V66.6555L410.926 65.8ZM407.15 69.832L408.035 70.2968V70.2968L407.15 69.832ZM407.15 81.544L406.259 81.9999L406.264 82.0088L407.15 81.544ZM410.862 85.576L410.334 86.4253L410.344 86.4315L410.862 85.576ZM415.661 93.768V92.768C412.499 92.768 409.692 92.0201 407.214 90.5413L406.702 91.4L406.189 92.2587C409.002 93.9372 412.168 94.768 415.661 94.768V93.768ZM406.702 91.4L407.23 90.5512C404.773 89.0207 402.821 86.9693 401.365 84.3817L400.493 84.872L399.622 85.3623C401.238 88.236 403.424 90.5366 406.173 92.2488L406.702 91.4ZM400.493 84.872L401.371 84.3922C399.966 81.8226 399.254 78.9182 399.254 75.656H398.254H397.254C397.254 79.2204 398.035 82.4601 399.616 85.3518L400.493 84.872ZM398.254 75.656H399.254C399.254 72.3986 399.985 69.4981 401.429 66.9303L400.557 66.44L399.686 65.9497C398.058 68.8433 397.254 72.0867 397.254 75.656H398.254ZM400.557 66.44L401.429 66.9303C402.883 64.3449 404.833 62.3178 407.284 60.831L406.766 59.976L406.247 59.121C403.493 60.7915 401.304 63.0737 399.686 65.9497L400.557 66.44ZM406.766 59.976L407.284 60.831C409.718 59.3547 412.48 58.608 415.598 58.608V57.608V56.608C412.144 56.608 409.018 57.44 406.247 59.121L406.766 59.976ZM415.598 57.608V58.608C418.235 58.608 420.526 59.1346 422.496 60.1592L422.957 59.272L423.419 58.3848C421.123 57.1907 418.507 56.608 415.598 56.608V57.608ZM422.957 59.272L422.496 60.1592C424.478 61.1899 426.028 62.6062 427.168 64.4133L428.013 63.88L428.859 63.3467C427.524 61.2285 425.703 59.5728 423.419 58.3848L422.957 59.272ZM428.013 63.88L427.177 63.3327L426.089 64.9967L426.926 65.544L427.762 66.0912L428.85 64.4272L428.013 63.88ZM426.926 65.544H427.926V44.552H426.926H425.926V65.544H426.926ZM426.926 44.552V45.552H434.094V44.552V43.552H426.926V44.552ZM434.094 44.552H433.094V93H434.094H435.094V44.552H434.094ZM434.094 93V92H427.246V93V94H434.094V93ZM427.246 93H428.246V85.96H427.246H426.246V93H427.246ZM427.246 85.96L426.395 86.4864L427.227 87.8304L428.078 87.304L428.928 86.7776L428.096 85.4336L427.246 85.96ZM428.078 87.304L427.209 86.8079C426.116 88.7217 424.558 90.1857 422.51 91.2096L422.957 92.104L423.405 92.9984C425.794 91.8036 427.65 90.0676 428.946 87.8001L428.078 87.304ZM422.957 92.104L422.51 91.2096C420.44 92.2449 418.162 92.768 415.661 92.768V93.768V94.768C418.452 94.768 421.038 94.1818 423.405 92.9984L422.957 92.104ZM416.366 87.048V88.048C418.542 88.048 420.52 87.5129 422.269 86.4253L421.742 85.576L421.214 84.7267C419.806 85.6018 418.2 86.048 416.366 86.048V87.048ZM421.742 85.576L422.259 86.4315C424.039 85.3542 425.424 83.8739 426.403 82.0088L425.518 81.544L424.632 81.0792C423.819 82.6275 422.686 83.8352 421.224 84.7205L421.742 85.576ZM425.518 81.544L426.399 82.0168C427.423 80.1085 427.926 77.9808 427.926 75.656H426.926H425.926C425.926 77.6832 425.49 79.4809 424.636 81.0712L425.518 81.544ZM426.926 75.656H427.926C427.926 73.3316 427.423 71.2211 426.394 69.3501L425.518 69.832L424.641 70.3139C425.49 71.8563 425.926 73.6284 425.926 75.656H426.926ZM425.518 69.832L426.403 69.3672C425.424 67.5021 424.039 66.0218 422.259 64.9445L421.742 65.8L421.224 66.6555C422.686 67.5408 423.819 68.7485 424.632 70.2968L425.518 69.832ZM421.742 65.8L422.269 64.9507C420.52 63.8631 418.542 63.328 416.366 63.328V64.328V65.328C418.2 65.328 419.806 65.7742 421.214 66.6493L421.742 65.8ZM416.366 64.328V63.328C414.189 63.328 412.194 63.8631 410.408 64.9445L410.926 65.8L411.443 66.6555C412.899 65.7743 414.532 65.328 416.366 65.328V64.328ZM410.926 65.8L410.408 64.9445C408.628 66.0218 407.243 67.5021 406.264 69.3672L407.15 69.832L408.035 70.2968C408.848 68.7485 409.981 67.5408 411.443 66.6555L410.926 65.8ZM407.15 69.832L406.264 69.3672C405.284 71.2348 404.806 73.3392 404.806 75.656H405.806H406.806C406.806 73.6208 407.223 71.8425 408.035 70.2968L407.15 69.832ZM405.806 75.656H404.806C404.806 77.9733 405.284 80.0949 406.259 81.9999L407.15 81.544L408.04 81.0881C407.223 79.4945 406.806 77.6907 406.806 75.656H405.806ZM407.15 81.544L406.264 82.0088C407.24 83.8671 408.598 85.3464 410.334 86.4253L410.862 85.576L411.389 84.7267C409.968 83.843 408.851 82.6342 408.035 81.0792L407.15 81.544ZM410.862 85.576L410.344 86.4315C412.134 87.515 414.15 88.048 416.366 88.048V87.048V86.048C414.485 86.048 412.832 85.5997 411.379 84.7205L410.862 85.576ZM445.737 93H444.737V94H445.737V93ZM445.737 84.68V83.68H444.737V84.68H445.737ZM453.096 84.68H454.096V83.68H453.096V84.68ZM453.096 93V94H454.096V93H453.096ZM445.737 93H446.737V84.68H445.737H444.737V93H445.737ZM445.737 84.68V85.68H453.096V84.68V83.68H445.737V84.68ZM453.096 84.68H452.096V93H453.096H454.096V84.68H453.096ZM453.096 93V92H445.737V93V94H453.096V93ZM468.884 92.552L468.446 93.4508L468.459 93.4571L468.472 93.4631L468.884 92.552ZM464.788 89.096L463.952 89.6452L463.96 89.6563L464.788 89.096ZM464.532 78.792L463.664 78.2959L463.658 78.3053L463.653 78.3149L464.532 78.792ZM468.436 75.016L467.931 74.153V74.153L468.436 75.016ZM475.028 72.84L475.187 73.8272L475.191 73.8267L475.028 72.84ZM487.06 70.856H488.06V69.6776L486.897 69.8693L487.06 70.856ZM487.06 76.552L487.232 77.5371L488.06 77.3924V76.552H487.06ZM476.436 78.408L476.264 77.4229L476.261 77.4234L476.436 78.408ZM472.212 80.264L472.902 80.9881L472.91 80.9797L472.919 80.9711L472.212 80.264ZM472.34 86.856L471.684 87.6106L471.701 87.6257L471.719 87.64L472.34 86.856ZM481.364 86.792L480.868 85.9237L480.857 85.9301L481.364 86.792ZM484.82 83.4L485.687 83.899L485.693 83.8878L484.82 83.4ZM484.116 65.544L483.448 66.2886L483.462 66.3006L483.476 66.3122L484.116 65.544ZM474.068 65.416L474.64 66.2364L474.645 66.233L474.068 65.416ZM470.932 69.256L470.485 70.1504L471.43 70.6232L471.85 69.6529L470.932 69.256ZM464.916 66.248L463.98 65.8969L463.664 66.7398L464.469 67.1424L464.916 66.248ZM468.052 61.768L468.714 62.5178L468.72 62.5124L468.726 62.507L468.052 61.768ZM473.108 58.696L472.761 57.758L472.755 57.7605L473.108 58.696ZM486.548 59.144L486.108 60.0421L486.115 60.0455L486.548 59.144ZM491.476 63.432L490.629 63.9638L490.636 63.9753L490.644 63.9867L491.476 63.432ZM493.268 93V94H494.268V93H493.268ZM486.356 93H485.356V94H486.356V93ZM486.356 86.728L486.485 85.7364L485.356 85.5891V86.728H486.356ZM487.828 86.92L488.695 87.419L489.441 86.122L487.957 85.9284L487.828 86.92ZM484.692 90.568L484.067 89.7871L484.061 89.7923L484.054 89.7976L484.692 90.568ZM480.404 92.936L480.08 91.9898L480.073 91.9925L480.404 92.936ZM475.092 93.768V92.768C472.86 92.768 470.936 92.3828 469.296 91.6409L468.884 92.552L468.472 93.4631C470.416 94.3426 472.63 94.768 475.092 94.768V93.768ZM468.884 92.552L469.322 91.6532C467.712 90.8679 466.489 89.8257 465.616 88.5357L464.788 89.096L463.96 89.6563C465.05 91.2677 466.557 92.5294 468.446 93.4508L468.884 92.552ZM464.788 89.096L465.624 88.5468C464.762 87.2361 464.316 85.6828 464.316 83.848H463.316H462.316C462.316 86.0238 462.851 87.9693 463.952 89.6452L464.788 89.096ZM463.316 83.848H464.316C464.316 82.1195 464.688 80.6011 465.411 79.2691L464.532 78.792L463.653 78.3149C462.755 79.9696 462.316 81.8219 462.316 83.848H463.316ZM464.532 78.792L465.4 79.2881C466.152 77.9719 467.316 76.8305 468.941 75.879L468.436 75.016L467.931 74.153C466.058 75.2495 464.618 76.6254 463.664 78.2959L464.532 78.792ZM468.436 75.016L468.941 75.879C470.556 74.934 472.627 74.2402 475.187 73.8272L475.028 72.84L474.869 71.8528C472.139 72.2931 469.815 73.05 467.931 74.153L468.436 75.016ZM475.028 72.84L475.191 73.8267L487.223 71.8427L487.06 70.856L486.897 69.8693L474.865 71.8533L475.028 72.84ZM487.06 70.856H486.06V76.552H487.06H488.06V70.856H487.06ZM487.06 76.552L486.888 75.5669L476.264 77.4229L476.436 78.408L476.608 79.3931L487.232 77.5371L487.06 76.552ZM476.436 78.408L476.261 77.4234C474.241 77.7826 472.605 78.4573 471.505 79.5569L472.212 80.264L472.919 80.9711C473.611 80.2787 474.791 79.7161 476.611 79.3926L476.436 78.408ZM472.212 80.264L471.522 79.5399C470.407 80.6025 469.868 81.9843 469.868 83.592H470.868H471.868C471.868 82.469 472.225 81.6322 472.902 80.9881L472.212 80.264ZM470.868 83.592H469.868C469.868 85.1984 470.48 86.5637 471.684 87.6106L472.34 86.856L472.996 86.1014C472.238 85.4417 471.868 84.6309 471.868 83.592H470.868ZM472.34 86.856L471.719 87.64C472.955 88.618 474.489 89.072 476.244 89.072V88.072V87.072C474.842 87.072 473.773 86.7153 472.961 86.072L472.34 86.856ZM476.244 88.072V89.072C478.355 89.072 480.243 88.6117 481.871 87.6539L481.364 86.792L480.857 85.9301C479.584 86.6789 478.058 87.072 476.244 87.072V88.072ZM481.364 86.792L481.86 87.6602C483.498 86.7242 484.782 85.4699 485.687 83.899L484.82 83.4L483.953 82.901C483.237 84.1461 482.217 85.1531 480.868 85.9238L481.364 86.792ZM484.82 83.4L485.693 83.8878C486.591 82.2801 487.036 80.5108 487.036 78.6H486.036H485.036C485.036 80.1879 484.67 81.6185 483.947 82.9122L484.82 83.4ZM486.036 78.6H487.036V69.704H486.036H485.036V78.6H486.036ZM486.036 69.704H487.036C487.036 67.7089 486.271 66.0377 484.756 64.7758L484.116 65.544L483.476 66.3122C484.522 67.1836 485.036 68.2858 485.036 69.704H486.036ZM484.116 65.544L484.784 64.7994C483.319 63.4864 481.395 62.88 479.124 62.88V63.88V64.88C481.034 64.88 482.438 65.383 483.448 66.2886L484.116 65.544ZM479.124 63.88V62.88C477.015 62.88 475.125 63.4461 473.491 64.599L474.068 65.416L474.645 66.233C475.913 65.3379 477.393 64.88 479.124 64.88V63.88ZM474.068 65.416L473.496 64.5956C471.935 65.6834 470.77 67.1102 470.014 68.8591L470.932 69.256L471.85 69.6529C472.459 68.2444 473.385 67.1112 474.64 66.2364L474.068 65.416ZM470.932 69.256L471.379 68.3616L465.363 65.3536L464.916 66.248L464.469 67.1424L470.485 70.1504L470.932 69.256ZM464.916 66.248L465.852 66.5991C466.431 65.0553 467.378 63.6963 468.714 62.5178L468.052 61.768L467.39 61.0182C465.825 62.3997 464.681 64.0274 463.98 65.8969L464.916 66.248ZM468.052 61.768L468.726 62.507C470.079 61.2733 471.654 60.3142 473.461 59.6315L473.108 58.696L472.755 57.7605C470.722 58.5285 468.927 59.6174 467.378 61.029L468.052 61.768ZM473.108 58.696L473.455 59.634C475.302 58.9513 477.254 58.608 479.316 58.608V57.608V56.608C477.026 56.608 474.839 56.99 472.761 57.758L473.108 58.696ZM479.316 57.608V58.608C481.92 58.608 484.176 59.0958 486.108 60.0421L486.548 59.144L486.988 58.2459C484.738 57.1442 482.173 56.608 479.316 56.608V57.608ZM486.548 59.144L486.115 60.0455C488.095 60.9957 489.587 62.3036 490.629 63.9638L491.476 63.432L492.323 62.9002C491.061 60.891 489.268 59.3403 486.981 58.2425L486.548 59.144ZM491.476 63.432L490.644 63.9867C491.717 65.5967 492.268 67.4897 492.268 69.704H493.268H494.268C494.268 67.1397 493.624 64.8513 492.308 62.8773L491.476 63.432ZM493.268 69.704H492.268V93H493.268H494.268V69.704H493.268ZM493.268 93V92H486.356V93V94H493.268V93ZM486.356 93H487.356V86.728H486.356H485.356V93H486.356ZM486.356 86.728L486.227 87.7196L487.699 87.9116L487.828 86.92L487.957 85.9284L486.485 85.7364L486.356 86.728ZM487.828 86.92L486.961 86.421C486.214 87.7198 485.251 88.8405 484.067 89.7871L484.692 90.568L485.317 91.3489C486.693 90.2476 487.821 88.9362 488.695 87.419L487.828 86.92ZM484.692 90.568L484.054 89.7976C482.916 90.7395 481.595 91.4717 480.08 91.9898L480.404 92.936L480.728 93.8822C482.456 93.291 483.993 92.4445 485.33 91.3384L484.692 90.568ZM480.404 92.936L480.073 91.9925C478.617 92.5039 476.961 92.768 475.092 92.768V93.768V94.768C477.148 94.768 479.034 94.4774 480.735 93.8795L480.404 92.936ZM501.724 93H500.724V94H501.724V93ZM501.724 58.376V57.376H500.724V58.376H501.724ZM508.956 58.376H509.956V57.376H508.956V58.376ZM508.956 93V94H509.956V93H508.956ZM501.724 53.64H500.724V54.64H501.724V53.64ZM501.724 45.32V44.32H500.724V45.32H501.724ZM508.956 45.32H509.956V44.32H508.956V45.32ZM508.956 53.64V54.64H509.956V53.64H508.956ZM501.724 93H502.724V58.376H501.724H500.724V93H501.724ZM501.724 58.376V59.376H508.956V58.376V57.376H501.724V58.376ZM508.956 58.376H507.956V93H508.956H509.956V58.376H508.956ZM508.956 93V92H501.724V93V94H508.956V93ZM501.724 53.64H502.724V45.32H501.724H500.724V53.64H501.724ZM501.724 45.32V46.32H508.956V45.32V44.32H501.724V45.32ZM508.956 45.32H507.956V53.64H508.956H509.956V45.32H508.956ZM508.956 53.64V52.64H501.724V53.64V54.64H508.956V53.64Z" fill="black" mask="url(#path-2-outside-1_344_149)"/>
<defs>
<filter id="filter0_d_344_149" x="10.7132" y="44.291" width="112.836" height="56.709" filterUnits="userSpaceOnUse" color-interpolation-filters="sRGB">
<feFlood flood-opacity="0" result="BackgroundImageFix"/>
<feColorMatrix in="SourceAlpha" type="matrix" values="0 0 0 0 0 0 0 0 0 0 0 0 0 0 0 0 0 0 127 0" result="hardAlpha"/>
<feOffset dx="6" dy="6"/>
<feComposite in2="hardAlpha" operator="out"/>
<feColorMatrix type="matrix" values="0 0 0 0 0.192157 0 0 0 0 0.929412 0 0 0 0 0.266667 0 0 0 1 0"/>
<feBlend mode="normal" in2="BackgroundImageFix" result="effect1_dropShadow_344_149"/>
<feBlend mode="normal" in="SourceGraphic" in2="effect1_dropShadow_344_149" result="shape"/>
</filter>
</defs>
</svg>
